<mxfile host="app.diagrams.net" agent="Mozilla/5.0 (Windows NT 10.0; Win64; x64) AppleWebKit/537.36 (KHTML, like Gecko) Chrome/128.0.0.0 Safari/537.36 OPR/114.0.0.0" version="24.8.6">
  <diagram id="C5RBs43oDa-KdzZeNtuy" name="Page-1">
    <mxGraphModel dx="1153" dy="565" grid="1" gridSize="10" guides="1" tooltips="1" connect="1" arrows="1" fold="1" page="1" pageScale="1" pageWidth="827" pageHeight="1169" math="0" shadow="0">
      <root>
        <mxCell id="WIyWlLk6GJQsqaUBKTNV-0" />
        <mxCell id="WIyWlLk6GJQsqaUBKTNV-1" parent="WIyWlLk6GJQsqaUBKTNV-0" />
        <mxCell id="Y3jf3uoAcI8peIsznbq1-30" style="edgeStyle=orthogonalEdgeStyle;rounded=0;orthogonalLoop=1;jettySize=auto;html=1;entryX=0;entryY=0.5;entryDx=0;entryDy=0;" edge="1" parent="WIyWlLk6GJQsqaUBKTNV-1" source="Y3jf3uoAcI8peIsznbq1-0" target="Y3jf3uoAcI8peIsznbq1-3">
          <mxGeometry relative="1" as="geometry">
            <Array as="points">
              <mxPoint x="75" y="200" />
            </Array>
          </mxGeometry>
        </mxCell>
        <mxCell id="Y3jf3uoAcI8peIsznbq1-0" value="In" style="whiteSpace=wrap;html=1;aspect=fixed;shape=startState;perimeter=ellipsePerimeter;fillColor=#000000;strokeColor=#ff0000;" vertex="1" parent="WIyWlLk6GJQsqaUBKTNV-1">
          <mxGeometry x="60" y="240" width="30" height="30" as="geometry" />
        </mxCell>
        <mxCell id="Y3jf3uoAcI8peIsznbq1-1" value="Inicio" style="text;html=1;align=center;verticalAlign=middle;whiteSpace=wrap;rounded=0;" vertex="1" parent="WIyWlLk6GJQsqaUBKTNV-1">
          <mxGeometry x="20" y="240" width="40" height="30" as="geometry" />
        </mxCell>
        <mxCell id="Y3jf3uoAcI8peIsznbq1-3" value="Fundamentação teórica" style="rounded=1;whiteSpace=wrap;html=1;" vertex="1" parent="WIyWlLk6GJQsqaUBKTNV-1">
          <mxGeometry x="130" y="170" width="120" height="60" as="geometry" />
        </mxCell>
        <mxCell id="Y3jf3uoAcI8peIsznbq1-4" value="" style="endArrow=classic;html=1;rounded=0;exitX=1.016;exitY=0.504;exitDx=0;exitDy=0;exitPerimeter=0;" edge="1" parent="WIyWlLk6GJQsqaUBKTNV-1" source="Y3jf3uoAcI8peIsznbq1-3">
          <mxGeometry width="50" height="50" relative="1" as="geometry">
            <mxPoint x="310" y="250" as="sourcePoint" />
            <mxPoint x="1020" y="200" as="targetPoint" />
          </mxGeometry>
        </mxCell>
        <mxCell id="Y3jf3uoAcI8peIsznbq1-8" value="Plano e gerência de projeto" style="rounded=1;whiteSpace=wrap;html=1;" vertex="1" parent="WIyWlLk6GJQsqaUBKTNV-1">
          <mxGeometry x="130" y="394" width="120" height="60" as="geometry" />
        </mxCell>
        <mxCell id="Y3jf3uoAcI8peIsznbq1-11" value="" style="endArrow=block;dashed=1;endFill=0;endSize=12;html=1;rounded=0;exitX=0.5;exitY=1.117;exitDx=0;exitDy=0;exitPerimeter=0;entryX=0;entryY=0.5;entryDx=0;entryDy=0;" edge="1" parent="WIyWlLk6GJQsqaUBKTNV-1" source="Y3jf3uoAcI8peIsznbq1-0" target="Y3jf3uoAcI8peIsznbq1-8">
          <mxGeometry width="160" relative="1" as="geometry">
            <mxPoint x="70" y="280" as="sourcePoint" />
            <mxPoint x="230" y="280" as="targetPoint" />
            <Array as="points">
              <mxPoint x="75" y="424" />
            </Array>
          </mxGeometry>
        </mxCell>
        <mxCell id="Y3jf3uoAcI8peIsznbq1-22" style="edgeStyle=orthogonalEdgeStyle;rounded=0;orthogonalLoop=1;jettySize=auto;html=1;entryX=0;entryY=0.5;entryDx=0;entryDy=0;" edge="1" parent="WIyWlLk6GJQsqaUBKTNV-1" source="Y3jf3uoAcI8peIsznbq1-14" target="Y3jf3uoAcI8peIsznbq1-21">
          <mxGeometry relative="1" as="geometry" />
        </mxCell>
        <mxCell id="Y3jf3uoAcI8peIsznbq1-14" value="Descrição de requisitos" style="rounded=1;whiteSpace=wrap;html=1;" vertex="1" parent="WIyWlLk6GJQsqaUBKTNV-1">
          <mxGeometry x="314" y="396" width="120" height="60" as="geometry" />
        </mxCell>
        <mxCell id="Y3jf3uoAcI8peIsznbq1-16" value="" style="endArrow=block;dashed=1;endFill=0;endSize=12;html=1;rounded=0;entryX=0;entryY=0.5;entryDx=0;entryDy=0;" edge="1" parent="WIyWlLk6GJQsqaUBKTNV-1" target="Y3jf3uoAcI8peIsznbq1-14">
          <mxGeometry width="160" relative="1" as="geometry">
            <mxPoint x="250" y="426" as="sourcePoint" />
            <mxPoint x="350" y="426" as="targetPoint" />
          </mxGeometry>
        </mxCell>
        <mxCell id="Y3jf3uoAcI8peIsznbq1-18" value="&lt;font style=&quot;font-size: 14px;&quot;&gt;10 dias&lt;/font&gt;" style="text;align=center;fontStyle=1;verticalAlign=middle;spacingLeft=3;spacingRight=3;strokeColor=none;rotatable=0;points=[[0,0.5],[1,0.5]];portConstraint=eastwest;html=1;" vertex="1" parent="WIyWlLk6GJQsqaUBKTNV-1">
          <mxGeometry x="150" y="370" width="80" height="26" as="geometry" />
        </mxCell>
        <mxCell id="Y3jf3uoAcI8peIsznbq1-19" value="&lt;font style=&quot;font-size: 14px;&quot;&gt;5 dias&lt;/font&gt;" style="text;align=center;fontStyle=1;verticalAlign=middle;spacingLeft=3;spacingRight=3;strokeColor=none;rotatable=0;points=[[0,0.5],[1,0.5]];portConstraint=eastwest;html=1;" vertex="1" parent="WIyWlLk6GJQsqaUBKTNV-1">
          <mxGeometry x="334" y="370" width="80" height="26" as="geometry" />
        </mxCell>
        <mxCell id="Y3jf3uoAcI8peIsznbq1-20" value="&lt;font style=&quot;font-size: 14px;&quot;&gt;20 dias&lt;/font&gt;" style="text;align=center;fontStyle=1;verticalAlign=middle;spacingLeft=3;spacingRight=3;strokeColor=none;rotatable=0;points=[[0,0.5],[1,0.5]];portConstraint=eastwest;html=1;" vertex="1" parent="WIyWlLk6GJQsqaUBKTNV-1">
          <mxGeometry x="150" y="144" width="80" height="26" as="geometry" />
        </mxCell>
        <mxCell id="Y3jf3uoAcI8peIsznbq1-24" style="edgeStyle=orthogonalEdgeStyle;rounded=0;orthogonalLoop=1;jettySize=auto;html=1;entryX=0;entryY=0.5;entryDx=0;entryDy=0;exitX=0.5;exitY=0;exitDx=0;exitDy=0;" edge="1" parent="WIyWlLk6GJQsqaUBKTNV-1" source="Y3jf3uoAcI8peIsznbq1-21" target="Y3jf3uoAcI8peIsznbq1-23">
          <mxGeometry relative="1" as="geometry" />
        </mxCell>
        <mxCell id="Y3jf3uoAcI8peIsznbq1-21" value="Visão de casos de uso" style="rounded=1;whiteSpace=wrap;html=1;" vertex="1" parent="WIyWlLk6GJQsqaUBKTNV-1">
          <mxGeometry x="490" y="396" width="120" height="60" as="geometry" />
        </mxCell>
        <mxCell id="Y3jf3uoAcI8peIsznbq1-26" style="edgeStyle=orthogonalEdgeStyle;rounded=0;orthogonalLoop=1;jettySize=auto;html=1;" edge="1" parent="WIyWlLk6GJQsqaUBKTNV-1" source="Y3jf3uoAcI8peIsznbq1-23" target="Y3jf3uoAcI8peIsznbq1-25">
          <mxGeometry relative="1" as="geometry" />
        </mxCell>
        <mxCell id="Y3jf3uoAcI8peIsznbq1-23" value="Visão de dados" style="rounded=1;whiteSpace=wrap;html=1;" vertex="1" parent="WIyWlLk6GJQsqaUBKTNV-1">
          <mxGeometry x="660" y="260" width="120" height="60" as="geometry" />
        </mxCell>
        <mxCell id="Y3jf3uoAcI8peIsznbq1-25" value="Plano de testes" style="rounded=1;whiteSpace=wrap;html=1;" vertex="1" parent="WIyWlLk6GJQsqaUBKTNV-1">
          <mxGeometry x="827" y="396" width="203" height="60" as="geometry" />
        </mxCell>
        <mxCell id="Y3jf3uoAcI8peIsznbq1-27" value="IC - Introdução Humano-Computador&lt;br&gt;&lt;br&gt;&lt;div&gt;SD - Sistemas Distribuídos&lt;/div&gt;" style="shape=note;size=20;whiteSpace=wrap;html=1;" vertex="1" parent="WIyWlLk6GJQsqaUBKTNV-1">
          <mxGeometry x="40" y="580" width="200" height="100" as="geometry" />
        </mxCell>
        <mxCell id="Y3jf3uoAcI8peIsznbq1-28" value="&lt;font style=&quot;font-size: 14px;&quot;&gt;5 dias&lt;/font&gt;" style="text;align=center;fontStyle=1;verticalAlign=middle;spacingLeft=3;spacingRight=3;strokeColor=none;rotatable=0;points=[[0,0.5],[1,0.5]];portConstraint=eastwest;html=1;" vertex="1" parent="WIyWlLk6GJQsqaUBKTNV-1">
          <mxGeometry x="480" y="370" width="80" height="26" as="geometry" />
        </mxCell>
        <mxCell id="Y3jf3uoAcI8peIsznbq1-46" style="edgeStyle=orthogonalEdgeStyle;rounded=0;orthogonalLoop=1;jettySize=auto;html=1;entryX=0.5;entryY=1;entryDx=0;entryDy=0;" edge="1" parent="WIyWlLk6GJQsqaUBKTNV-1" source="Y3jf3uoAcI8peIsznbq1-29" target="Y3jf3uoAcI8peIsznbq1-25">
          <mxGeometry relative="1" as="geometry">
            <mxPoint x="930" y="460" as="targetPoint" />
          </mxGeometry>
        </mxCell>
        <mxCell id="Y3jf3uoAcI8peIsznbq1-29" value="Visão de implementação" style="rounded=1;whiteSpace=wrap;html=1;" vertex="1" parent="WIyWlLk6GJQsqaUBKTNV-1">
          <mxGeometry x="660" y="480" width="120" height="60" as="geometry" />
        </mxCell>
        <mxCell id="Y3jf3uoAcI8peIsznbq1-31" value="Visão Comportamental" style="rounded=1;whiteSpace=wrap;html=1;" vertex="1" parent="WIyWlLk6GJQsqaUBKTNV-1">
          <mxGeometry x="660" y="580" width="120" height="60" as="geometry" />
        </mxCell>
        <mxCell id="Y3jf3uoAcI8peIsznbq1-47" style="edgeStyle=orthogonalEdgeStyle;rounded=0;orthogonalLoop=1;jettySize=auto;html=1;" edge="1" parent="WIyWlLk6GJQsqaUBKTNV-1" source="Y3jf3uoAcI8peIsznbq1-32" target="Y3jf3uoAcI8peIsznbq1-25">
          <mxGeometry relative="1" as="geometry" />
        </mxCell>
        <mxCell id="Y3jf3uoAcI8peIsznbq1-32" value="Projeto SD" style="rounded=1;whiteSpace=wrap;html=1;" vertex="1" parent="WIyWlLk6GJQsqaUBKTNV-1">
          <mxGeometry x="660" y="680" width="120" height="60" as="geometry" />
        </mxCell>
        <mxCell id="Y3jf3uoAcI8peIsznbq1-48" style="edgeStyle=orthogonalEdgeStyle;rounded=0;orthogonalLoop=1;jettySize=auto;html=1;" edge="1" parent="WIyWlLk6GJQsqaUBKTNV-1" source="Y3jf3uoAcI8peIsznbq1-33" target="Y3jf3uoAcI8peIsznbq1-25">
          <mxGeometry relative="1" as="geometry" />
        </mxCell>
        <mxCell id="Y3jf3uoAcI8peIsznbq1-33" value="Projeto IHC" style="rounded=1;whiteSpace=wrap;html=1;" vertex="1" parent="WIyWlLk6GJQsqaUBKTNV-1">
          <mxGeometry x="660" y="780" width="120" height="60" as="geometry" />
        </mxCell>
        <mxCell id="Y3jf3uoAcI8peIsznbq1-34" value="&lt;font style=&quot;font-size: 14px;&quot;&gt;5 dias&lt;/font&gt;" style="text;align=center;fontStyle=1;verticalAlign=middle;spacingLeft=3;spacingRight=3;strokeColor=none;rotatable=0;points=[[0,0.5],[1,0.5]];portConstraint=eastwest;html=1;" vertex="1" parent="WIyWlLk6GJQsqaUBKTNV-1">
          <mxGeometry x="680" y="454" width="80" height="26" as="geometry" />
        </mxCell>
        <mxCell id="Y3jf3uoAcI8peIsznbq1-35" value="&lt;font style=&quot;font-size: 14px;&quot;&gt;5 dias&lt;/font&gt;" style="text;align=center;fontStyle=1;verticalAlign=middle;spacingLeft=3;spacingRight=3;strokeColor=none;rotatable=0;points=[[0,0.5],[1,0.5]];portConstraint=eastwest;html=1;" vertex="1" parent="WIyWlLk6GJQsqaUBKTNV-1">
          <mxGeometry x="680" y="654" width="80" height="26" as="geometry" />
        </mxCell>
        <mxCell id="Y3jf3uoAcI8peIsznbq1-36" value="&lt;font style=&quot;font-size: 14px;&quot;&gt;5 dias&lt;/font&gt;" style="text;align=center;fontStyle=1;verticalAlign=middle;spacingLeft=3;spacingRight=3;strokeColor=none;rotatable=0;points=[[0,0.5],[1,0.5]];portConstraint=eastwest;html=1;" vertex="1" parent="WIyWlLk6GJQsqaUBKTNV-1">
          <mxGeometry x="680" y="754" width="80" height="26" as="geometry" />
        </mxCell>
        <mxCell id="Y3jf3uoAcI8peIsznbq1-37" value="&lt;font style=&quot;font-size: 14px;&quot;&gt;10 dias&lt;/font&gt;" style="text;align=center;fontStyle=1;verticalAlign=middle;spacingLeft=3;spacingRight=3;strokeColor=none;rotatable=0;points=[[0,0.5],[1,0.5]];portConstraint=eastwest;html=1;" vertex="1" parent="WIyWlLk6GJQsqaUBKTNV-1">
          <mxGeometry x="680" y="554" width="80" height="26" as="geometry" />
        </mxCell>
        <mxCell id="Y3jf3uoAcI8peIsznbq1-40" style="edgeStyle=orthogonalEdgeStyle;rounded=0;orthogonalLoop=1;jettySize=auto;html=1;entryX=0;entryY=0.5;entryDx=0;entryDy=0;exitX=0.5;exitY=0;exitDx=0;exitDy=0;" edge="1" parent="WIyWlLk6GJQsqaUBKTNV-1" source="Y3jf3uoAcI8peIsznbq1-38" target="Y3jf3uoAcI8peIsznbq1-29">
          <mxGeometry relative="1" as="geometry" />
        </mxCell>
        <mxCell id="Y3jf3uoAcI8peIsznbq1-41" style="edgeStyle=orthogonalEdgeStyle;rounded=0;orthogonalLoop=1;jettySize=auto;html=1;entryX=0;entryY=0.5;entryDx=0;entryDy=0;exitX=0.5;exitY=1;exitDx=0;exitDy=0;" edge="1" parent="WIyWlLk6GJQsqaUBKTNV-1" source="Y3jf3uoAcI8peIsznbq1-38" target="Y3jf3uoAcI8peIsznbq1-32">
          <mxGeometry relative="1" as="geometry">
            <Array as="points">
              <mxPoint x="490" y="710" />
            </Array>
          </mxGeometry>
        </mxCell>
        <mxCell id="Y3jf3uoAcI8peIsznbq1-43" style="edgeStyle=orthogonalEdgeStyle;rounded=0;orthogonalLoop=1;jettySize=auto;html=1;entryX=0;entryY=0.5;entryDx=0;entryDy=0;exitX=0.5;exitY=1;exitDx=0;exitDy=0;" edge="1" parent="WIyWlLk6GJQsqaUBKTNV-1" source="Y3jf3uoAcI8peIsznbq1-38" target="Y3jf3uoAcI8peIsznbq1-33">
          <mxGeometry relative="1" as="geometry" />
        </mxCell>
        <mxCell id="Y3jf3uoAcI8peIsznbq1-38" value="Visão de casos de uso" style="rounded=1;whiteSpace=wrap;html=1;" vertex="1" parent="WIyWlLk6GJQsqaUBKTNV-1">
          <mxGeometry x="430" y="637" width="120" height="60" as="geometry" />
        </mxCell>
        <mxCell id="Y3jf3uoAcI8peIsznbq1-39" value="" style="endArrow=block;dashed=1;endFill=0;endSize=12;html=1;rounded=0;entryX=0;entryY=0.5;entryDx=0;entryDy=0;exitX=0.5;exitY=1;exitDx=0;exitDy=0;" edge="1" parent="WIyWlLk6GJQsqaUBKTNV-1" source="Y3jf3uoAcI8peIsznbq1-14" target="Y3jf3uoAcI8peIsznbq1-38">
          <mxGeometry width="160" relative="1" as="geometry">
            <mxPoint x="260" y="436" as="sourcePoint" />
            <mxPoint x="324" y="436" as="targetPoint" />
            <Array as="points">
              <mxPoint x="374" y="667" />
            </Array>
          </mxGeometry>
        </mxCell>
        <mxCell id="Y3jf3uoAcI8peIsznbq1-44" value="" style="endArrow=block;dashed=1;endFill=0;endSize=12;html=1;rounded=0;entryX=0;entryY=0.5;entryDx=0;entryDy=0;" edge="1" parent="WIyWlLk6GJQsqaUBKTNV-1" source="Y3jf3uoAcI8peIsznbq1-38" target="Y3jf3uoAcI8peIsznbq1-31">
          <mxGeometry width="160" relative="1" as="geometry">
            <mxPoint x="460" y="620" as="sourcePoint" />
            <mxPoint x="440" y="677" as="targetPoint" />
            <Array as="points">
              <mxPoint x="490" y="610" />
            </Array>
          </mxGeometry>
        </mxCell>
        <mxCell id="Y3jf3uoAcI8peIsznbq1-45" value="" style="endArrow=none;dashed=1;html=1;rounded=0;exitX=1;exitY=0.5;exitDx=0;exitDy=0;entryX=0.5;entryY=1;entryDx=0;entryDy=0;" edge="1" parent="WIyWlLk6GJQsqaUBKTNV-1" source="Y3jf3uoAcI8peIsznbq1-31" target="Y3jf3uoAcI8peIsznbq1-25">
          <mxGeometry width="50" height="50" relative="1" as="geometry">
            <mxPoint x="780" y="650" as="sourcePoint" />
            <mxPoint x="830" y="600" as="targetPoint" />
            <Array as="points">
              <mxPoint x="930" y="610" />
            </Array>
          </mxGeometry>
        </mxCell>
        <mxCell id="Y3jf3uoAcI8peIsznbq1-49" value="Visão de dados" style="rounded=1;whiteSpace=wrap;html=1;" vertex="1" parent="WIyWlLk6GJQsqaUBKTNV-1">
          <mxGeometry x="1110" y="260" width="120" height="60" as="geometry" />
        </mxCell>
      </root>
    </mxGraphModel>
  </diagram>
</mxfile>
